<!-- Generated by IcoMoon.io -->
<svg version="1.1" xmlns="http://www.w3.org/2000/svg" width="1024" height="1024" viewBox="0 0 1024 1024">
<title></title>
<g id="icomoon-ignore">
</g>
<path fill="#efefef" d="M944 683.294c0 7.774-98.049 14.077-219.003 14.077s-219.003-6.307-219.003-14.077 98.049-14.077 219.003-14.077c120.942 0 219.003 6.291 219.003 14.077z"></path>
<path fill="#005696" d="M846.774 683.294h-245.131c-7.218 0-13.034-9.767-13.034-21.793v-273.942c0-12.037 5.829-21.793 13.034-21.793h245.14c7.218 0 13.050 9.767 13.050 21.793v273.942c0 12.037-5.851 21.793-13.050 21.793z"></path>
<path fill="#0d98ff" d="M643.168 379.82s1.564-34.421-17.135-53.19h40.537s17.135 14.077 17.135 53.19h-40.537z"></path>
<path fill="#0064d2" d="M859.827 659.61v-270.165c0-13.080-6.34-23.693-14.169-23.693h-219.861v317.551h219.869c7.82 0 14.169-10.603 14.169-23.693z"></path>
<path fill="#ffdf00" d="M813.059 480.707c0 40.167-32.451 72.746-72.482 72.746s-72.491-32.567-72.491-72.746c0-40.167 32.451-72.746 72.491-72.746s72.491 32.567 72.491 72.746z"></path>
<path fill="#0064d2" d="M754.194 480.012c1.077-0.776 2.143-1.634 3.117-2.607 4.53-4.553 7.334-10.833 7.334-17.761 0-7.403-3.203-14.067-8.284-18.664l-0.012-0.012c-9.396-8.492-24.040-8.492-33.425 0-5.109 4.623-8.307 11.285-8.307 18.688 0 6.94 2.792 13.208 7.334 17.761l-0.005-0.005c1.031 1.031 2.149 1.935 3.302 2.769-21.677 6.639-24.851 28.443-24.874 40.353-0.012 4.391 3.51 7.936 7.871 7.931 8.678-0.012 22.974-0.035 31.385-0.035 9.025 0 25.222 0.012 34.815 0.035 0.012 0 0.012 0 0.012 0 4.345 0 7.867-3.525 7.867-7.867 0-0.127-0.012-0.261-0.012-0.382l0.005 0.012c-0.568-12.061-4.878-33.795-28.103-40.191z"></path>
<path fill="#e6e7e8" d="M807.498 602.032h-129.168c-1.356-0.012-2.445-1.101-2.445-2.445 0-0.011 0-0.012 0-0.012v0.003-17.858c0-1.356 1.101-2.445 2.445-2.445h129.168c1.356 0 2.445 1.101 2.445 2.445v17.877c0 0.008 0 0.012 0 0.012 0 1.356-1.101 2.445-2.445 2.445h-0.003zM796.909 636.882h-107.966c-1.68-0.012-3.047-1.379-3.047-3.063 0-0.011 0-0.012 0-0.012v0.003-13.266c0-1.696 1.368-3.070 3.047-3.070h107.99c1.68 0 3.047 1.379 3.047 3.070v13.266c0 0.008 0 0.012 0 0.012 0 1.68-1.356 3.047-3.047 3.063h-0.003z"></path>
<path fill="#0d98ff" d="M631.026 414.229h-42.739c-5.851-0.012-10.588-4.762-10.588-10.601 0-0.012 0-0.012 0-0.023v0.008-2.213c0-0.012 0-0.012 0-0.012 0-5.851 4.739-10.601 10.583-10.601h42.739c5.851 0.012 10.578 4.762 10.578 10.601 0 0.012 0 0.012 0 0.012v-0.005 2.213c0 0.012 0 0.012 0 0.012 0 5.851-4.739 10.601-10.578 10.601h-0.008zM631.026 533.121h-42.739c-5.851-0.012-10.588-4.762-10.588-10.601 0-0.012 0-0.012 0-0.012v0.005-2.213c0-0.012 0-0.012 0-0.012 0-5.851 4.739-10.601 10.583-10.601h42.739c5.851 0.012 10.578 4.762 10.578 10.601 0 0.012 0 0.012 0 0.012v-0.005 2.213c0 0.012 0 0.012 0 0.012 0 5.851-4.739 10.601-10.578 10.601h-0.008zM631.026 658.269h-42.739c-5.851-0.012-10.588-4.762-10.588-10.601 0-0.012 0-0.012 0-0.012v0.005-2.213c0-0.012 0-0.012 0-0.012 0-5.851 4.739-10.601 10.583-10.601h42.739c5.851 0.012 10.578 4.762 10.578 10.601 0 0.012 0 0.012 0 0.012v-0.005 2.213c0 0.012 0 0.012 0 0.012 0 5.851-4.739 10.601-10.578 10.601h-0.008z"></path>
</svg>
